<?xml version="1.0" encoding="UTF-8"?>
<svg xmlns="http://www.w3.org/2000/svg" xmlns:xlink="http://www.w3.org/1999/xlink" width="97px" height="32px" viewBox="0 0 97 32" version="1.1">
  <title>游戏说系统logo</title>
  <defs>
    <filter color-interpolation-filters="auto" id="filter-1">
      <feColorMatrix in="SourceGraphic" type="matrix" values="0 0 0 0 0.945098 0 0 0 0 0.945098 0 0 0 0 0.945098 0 0 0 1.000000 0"></feColorMatrix>
    </filter>
  </defs>
  <g id="交互设计稿" stroke="none" stroke-width="1" fill="none" fill-rule="evenodd">
    <g id="内容风向设计稿-新增组件-20210930" transform="translate(-89.000000, -988.000000)">
      <g id="编组-17" transform="translate(65.000000, 974.000000)">
        <g id="编组-9" transform="translate(24.000000, 14.000000)">
          <g filter="url(#filter-1)" id="编组-3备份">
            <g transform="translate(38.037736, 7.314286)">
              <path d="M3.04043127,11.3572783 L5.14747786,11.3572783 C4.33962646,13.7125282 3.39543597,16.0197279 2.31959954,18.2674093 L0,18.2674093 C1.15546903,16.0278999 2.17086045,13.7201722 3.04043127,11.3572783 Z M5.7296881,9.89287972 L3.52098575,9.89287972 C2.93656922,8.54261051 2.42752285,7.16155267 1.9961494,5.75595364 L3.94609164,5.75595364 C4.46838478,7.16576432 5.06686177,8.54673416 5.73892953,9.89287972 L5.7296881,9.89287972 Z M15.1929149,4.28240253 C14.7004653,4.97376196 14.108966,5.59040042 13.4370427,6.1129008 L18.057759,6.1129008 C18.2413934,6.09970775 18.4248213,6.14113956 18.5845206,6.23188319 C18.7114642,6.33356853 18.7775938,6.49213086 18.7601078,6.65289779 C18.7312451,7.11599855 18.5746141,7.56237456 18.3072776,7.94339907 C17.7622882,8.78837916 17.1438442,9.5846187 16.4589911,10.3230468 L16.4589911,10.6342315 L18.9726608,10.6342315 L18.7601078,12.1993075 L16.2834039,12.1993075 L15.5995379,18.2857143 L12.1155179,18.2857143 L11.6626877,16.7206383 L13.6865614,16.7206383 L14.2318059,12.1993075 L11.8382749,12.1993075 L12.0508279,10.6342315 L14.4073931,10.6342315 L14.4813246,9.99355713 C15.1261103,9.3591529 15.7022063,8.65976711 16.200231,7.9067891 C16.2649211,7.81526419 16.2834039,7.74204426 16.2556796,7.68712931 C16.2279553,7.63221436 16.1540239,7.60475689 16.0246438,7.60475689 L13.3169041,7.60475689 L12.9472468,6.44239049 C12.5914028,6.68408543 12.2210636,6.90415045 11.8382749,7.10136986 L12.1709665,5.34409152 L9.16750096,5.34409152 C9.08740855,6.24713734 9.00423566,7.01899744 8.91798229,7.65967184 L11.0435117,7.65967184 C11.41933,7.65967184 11.6626877,7.74204426 11.7735849,7.9067891 C11.8961378,8.17992416 11.9253404,8.48520742 11.8567578,8.77627578 C11.5425491,11.3145667 11.0927994,14.4813287 10.5075087,18.2765618 L7.62418175,18.2765618 L7.15286869,16.7114858 L8.85329226,16.7114858 C9.22911051,14.405058 9.57412399,11.9918511 9.88833269,9.47186512 C9.91015429,9.39712529 9.91015429,9.31779267 9.88833269,9.24305284 C9.88833269,9.24305284 9.81440123,9.18813789 9.72198691,9.18813789 L8.69618791,9.18813789 C8.10913104,12.3350468 7.11196106,15.393139 5.7296881,18.2857143 L3.52098575,18.2857143 C5.07906132,15.3001766 6.19042333,12.1060868 6.82017713,8.80373325 C7.01732769,7.63221436 7.16827108,6.47900045 7.27300732,5.34409152 L5.83134386,5.34409152 L5.88679245,4.94138191 L3.97381594,4.94138191 C3.48093955,3.72104973 3.03118983,2.46715841 2.62456681,1.17970796 L4.64844051,1.17970796 C4.97497112,2.15597371 5.40315749,3.27562848 5.93299961,4.53867229 L6.05313824,3.788168 L8.37273777,3.788168 C8.08933385,2.73258066 7.86137851,1.7746199 7.68887178,0.914285714 L9.67577975,0.914285714 C9.86794427,1.88514383 10.1147677,2.8446019 10.4150943,3.788168 L12.5406238,3.788168 L12.4020023,4.65765467 C13.5962281,3.73839505 14.3845213,2.39676061 14.6014632,0.914285714 L16.6068541,0.914285714 C16.5055991,1.54519162 16.322329,2.16046735 16.0616095,2.74478398 L19.9245283,2.74478398 L19.6934925,4.30986 L15.1929149,4.28240253 Z" id="形状" fill="#606887" fill-rule="nonzero"></path>
              <path d="M39.6219965,6.30871481 L34.2103962,7.05429019 C34.2416595,8.53939892 34.3680684,10.0209041 34.5888298,11.4895079 C35.4717688,10.3582031 36.1857709,9.10222129 36.7080578,7.76163095 L38.9218943,7.76163095 C38.5427631,8.86734416 38.0278589,9.92064536 37.3892383,10.896871 C36.7134752,11.9286568 35.9369507,12.8893343 35.0713326,13.7644687 C35.2974857,14.670064 35.5786908,15.5607092 35.9133473,16.4313345 L38.4204698,16.4313345 L37.6636026,18.2283623 L34.1725528,18.2283623 C33.808516,17.2895983 33.4927337,16.3324563 33.2264688,15.3607647 C31.6501667,16.5934782 29.8992268,17.5795025 28.0324679,18.2857143 L28.4109015,16.4695691 L26.5187335,16.4695691 L25.4212761,13.3821223 C24.5193428,14.9178802 23.5732588,16.4026585 22.5830242,17.8364573 L19.9245283,17.8364573 C21.6683431,15.6754792 23.2047643,13.3518198 24.5130355,10.896871 C23.9264635,8.80033854 23.3335842,6.49988798 22.7343977,3.99551938 L24.7495565,3.99551938 C25.1469118,5.82440943 25.5316526,7.39840191 25.903779,8.71749683 C26.7652512,7.02841287 27.4227601,5.24088115 27.8621728,3.39332387 C27.8621728,3.25950265 27.8621728,3.19259204 27.6824168,3.19259204 L22.4316508,3.19259204 L22.7343977,1.4146815 L29.205612,1.4146815 C29.5658536,1.34293036 29.9346526,1.48824909 30.151696,1.7874692 C30.2976102,2.15890859 30.2976102,2.57262752 30.151696,2.94406691 C29.3691533,5.84179086 28.2513744,8.63625587 26.8214804,11.2696587 C27.4080525,12.9519827 28.007239,14.4526921 28.6190399,15.771787 C29.3564216,15.4528956 30.0708743,15.0823939 30.7571897,14.6629826 C31.4548555,14.2490001 32.1163517,13.7757289 32.7345052,13.2483011 C32.3820393,11.2735596 32.1545179,9.27812676 32.0533247,7.27413935 L29.442133,7.63736838 L29.6975757,5.72563662 L32.0344031,5.40064222 C32.0344031,3.68008364 32.0690928,1.87986956 32.1384723,0 L34.2955437,0 C34.2135498,1.44017126 34.1725528,3.14798497 34.1725528,5.12344112 L39.8490566,4.3396311 L39.6219965,6.30871481 Z M38.76106,3.94772608 L36.405311,3.94772608 C35.9572684,2.92207577 35.5656242,1.87221132 35.2321669,0.802927339 L37.3892383,0.802927339 C37.7865936,1.85437981 38.2438675,2.90264606 38.76106,3.94772608 L38.76106,3.94772608 Z" id="形状" fill="#606887" fill-rule="nonzero"></path>
              <path d="M46.3567263,14.6213572 C44.6733227,15.9118482 42.9157378,17.1078269 41.0925266,18.2034719 L43.1100006,7.83178778 L40.754717,7.83178778 L41.0549922,6.13211092 L45.5685039,6.13211092 L44.0483606,14.210145 C44.6426553,13.7837028 45.5810153,13.0709351 46.8634407,12.0718419 L46.3567263,14.6213572 Z M46.0752183,5.0538213 L43.9169902,5.0538213 L42.6877386,0.923423762 L44.7239798,0.923423762 L46.0752183,5.0538213 Z M57.1384828,11.1123469 L54.8395008,11.1123469 L53.9011408,16.6500038 L57.204168,16.6500038 L56.4722472,18.2857143 L51.5270899,18.2857143 L52.7375744,11.1123469 L51.3488015,11.1123469 C51.0519864,12.428764 50.5621446,13.6967231 49.8943435,14.8772225 C49.1666569,16.1796486 48.1886563,17.3337065 47.0135783,18.2765762 L44.3111014,18.2765762 C45.5819594,17.324722 46.7040714,16.1981139 47.6422795,14.9320508 C48.4595429,13.7790863 49.0277923,12.4764689 49.3125603,11.1032088 L46.9572767,11.1032088 L47.8956367,4.33191553 L53.1598364,4.33191553 C53.4476001,3.88110518 53.7822818,3.32063826 54.1638816,2.65051477 C54.5454813,1.98039127 54.858268,1.40164826 55.1022416,0.914285714 L57.4481416,0.914285714 C56.5911062,2.5225821 55.9436377,3.65874602 55.5057364,4.32277749 L56.7912896,4.32277749 C57.1418588,4.28227279 57.4961152,4.35965287 57.7953348,4.54209063 C57.9579839,4.68829939 58.001774,4.99290098 57.9267052,5.45589539 L57.1384828,11.1123469 Z M52.2871616,3.8658751 L50.0726319,3.8658751 L49.0592031,0.93256181 L51.1986639,0.93256181 C51.5095336,1.92607377 51.8760428,2.90226061 52.2965452,3.85673706 L52.2871616,3.8658751 Z M49.6972879,5.94934997 L49.2374915,9.51318855 L55.2992972,9.51318855 L55.7309428,6.19607725 C55.7309428,6.03159239 55.7309428,5.94934997 55.5526544,5.94934997 L49.6972879,5.94934997 Z" id="形状" fill="#606887" fill-rule="nonzero"></path>
            </g>
          </g>
          <g id="编组-4" fill-rule="nonzero">
            <path d="M30.9076306,26.8862137 C31.7648907,27.3271603 32.7788416,27.2777791 33.5869318,26.7590121 C34.3849649,26.2467015 34.8668979,25.3511125 34.8682595,24.3907269 L34.8682595,10.5071643 C34.8728772,8.99050891 34.2617195,7.53401026 33.1793586,6.49502757 C32.0902044,5.44952384 30.623765,4.92295215 29.1377983,5.0465985 L12.6057165,6.36058367 C9.82931552,6.57221291 7.69111943,8.96433182 7.69849317,11.8259923 L7.69849317,26.2299572 C7.69849317,27.1445601 8.42761521,27.8859923 9.32699252,27.8859923 C10.2263698,27.8859923 10.9554592,27.1445601 10.9554592,26.2299572 L10.9554592,11.8216304 C10.9525062,10.679371 11.7883723,9.74424114 12.8543336,9.66298575 L29.3974938,8.34811744 C29.966552,8.30077749 30.5244609,8.5011124 30.9436999,8.90354939 C31.3697237,9.31249933 31.6131546,9.89263876 31.6112813,10.501987 L31.6112738,23.5334312 L27.8540808,21.5858518 C27.5724379,21.4398599 27.2550991,21.3803862 26.9407825,21.414687 L17.1051566,22.4880296 L17.1051566,17.981206 C17.1051566,17.0666031 16.3760673,16.325171 15.47669,16.325171 C14.5773126,16.325171 13.8482233,17.0666031 13.8482233,17.981206 L13.8482233,24.3312839 C13.8482233,25.3158136 14.6878321,26.0829134 15.6504453,25.9778653 L26.8066082,24.7604151 L30.9076306,26.8862137 Z" id="路径" fill="#5D78FF"></path>
            <path d="M9.50979491,31.5431351 C11.5097039,31.5431351 13.1324364,29.9066081 13.1324364,27.8859923 C13.1324364,25.8653765 11.5097039,24.2288494 9.50979491,24.2288494 C7.50988591,24.2288494 5.8871534,25.8653765 5.8871534,27.8859923 C5.8871534,29.9066081 7.50988591,31.5431351 9.50979491,31.5431351 Z" id="椭圆形" fill="#FF5756"></path>
            <path d="M15.8494176,19.6574209 C17.8493266,19.6574209 19.4720591,18.0208938 19.4720591,16.000278 C19.4720591,13.9796622 17.8493266,12.3431351 15.8494176,12.3431351 C13.8495086,12.3431351 12.226776,13.9796622 12.226776,16.000278 C12.226776,18.0208938 13.8495086,19.6574209 15.8494176,19.6574209 Z" id="椭圆形" fill="#FF5756"></path>
            <ellipse id="椭圆形" fill="#27A731" cx="28.5286628" cy="12.3431351" rx="1.81132075" ry="1.82857143"></ellipse>
            <ellipse id="椭圆形" fill="#FFBB2B" cx="24.9060213" cy="16.9145637" rx="1.81132075" ry="1.82857143"></ellipse>
            <path d="M7.16014663,8.96213362 C7.71417809,7.85657289 8.6348249,6.92804572 9.79985355,6.30862079 C10.3626178,6.0094091 10.5788692,5.30569673 10.2828645,4.73683522 C9.98685992,4.1679737 9.29069023,3.94937933 8.72792601,4.24859102 C7.14600431,5.08967054 5.87928261,6.36723486 5.10599954,7.91030859 C4.81865928,8.48369139 5.04556045,9.18396905 5.61279751,9.47442251 C6.18003456,9.76487598 6.87280636,9.53551643 7.16014663,8.96213362 Z" id="路径" fill="#27A731"></path>
            <path d="M2.9279609,7.93538782 C3.90892274,5.65768954 5.6803288,3.80577199 7.91741667,2.71108408 C8.54486045,2.40405317 8.78627031,1.68141205 8.45662068,1.09701997 C8.12697104,0.51262788 7.35109353,0.287782223 6.72364975,0.594813134 C3.94122971,1.95635178 1.75168249,4.24541525 0.545785718,7.04539065 C0.281914407,7.65807425 0.601272525,8.3539851 1.25909204,8.59975103 C1.91691155,8.84551696 2.66408959,8.54807142 2.9279609,7.93538782 Z" id="路径" fill="#27A731"></path>
          </g>
        </g>
      </g>
    </g>
  </g>
</svg>
