<?xml version="1.0" encoding="UTF-8"?>
<svg xmlns="http://www.w3.org/2000/svg" xmlns:xlink="http://www.w3.org/1999/xlink" width="24px" height="24px" viewBox="0 0 24 24" version="1.1">
  <title>icon/24/消息-normal</title>
  <g id="交互设计稿" stroke="none" stroke-width="1" fill="none" fill-rule="evenodd">
    <g id="内容风向设计稿-新增组件-20210930" transform="translate(-1525.000000, -1149.000000)">
      <g id="编组-17备份" transform="translate(65.000000, 1131.000000)">
        <g id="编组-5" transform="translate(1416.000000, 14.000000)">
          <g id="icon/24/消息-normal" transform="translate(44.000000, 4.000000)">
            <rect id="矩形" fill="#F2F2F2" opacity="0" x="0" y="0" width="24" height="24"></rect>
            <path d="M20.3076923,17 C20.6900433,17 21,17.3357864 21,17.75 C21,18.1296958 20.7395503,18.443491 20.4016344,18.4931534 L20.3076923,18.5 L15.4644196,18.5009499 C15.2213961,20.1966339 13.7629068,21.5 12,21.5 C10.2370932,21.5 8.77860392,20.1966339 8.53558044,18.5009499 L3.69230769,18.5 C3.30995671,18.5 3,18.1642136 3,17.75 C3,17.3703042 3.26044974,17.056509 3.59836564,17.0068466 L3.69230769,17 L20.3076923,17 Z M13.9367279,18.5010222 L10.063242,18.5009054 C10.2855781,19.3630596 11.0684064,20 12,20 C12.9315516,20 13.7143512,19.3631171 13.9367279,18.5010222 Z M12,2 C12.5522847,2 13,2.44771525 13,3 L13.0010101,4.07103341 C16.3928118,4.55669765 19,7.4738781 19,11 L19,14.75 C19,15.1642136 18.6642136,15.5 18.25,15.5 C17.8357864,15.5 17.5,15.1642136 17.5,14.75 L17.5,11 C17.5,8.03652085 15.15622,5.62046086 12.2212071,5.5043672 L12,5.5 C9.03652085,5.5 6.62046086,7.84378001 6.5043672,10.7787929 L6.5,11 L6.5,14.75 C6.5,15.1642136 6.16421356,15.5 5.75,15.5 C5.33578644,15.5 5,15.1642136 5,14.75 L5,11 C5,7.47353094 7.60770164,4.55612324 10.9999918,4.07089004 L11,3 C11,2.44771525 11.4477153,2 12,2 Z" id="形状结合" fill="#BFBFC6" fill-rule="nonzero"></path>
          </g>
        </g>
      </g>
    </g>
  </g>
</svg>
