<?xml version="1.0" encoding="UTF-8"?>
<svg xmlns="http://www.w3.org/2000/svg" xmlns:xlink="http://www.w3.org/1999/xlink" width="24px" height="24px" viewBox="0 0 24 24" version="1.1">
  <title>搜索-互动</title>
  <g id="交互设计稿" stroke="none" stroke-width="1" fill="none" fill-rule="evenodd">
    <g id="内容风向设计稿-新增组件-20210930" transform="translate(-1481.000000, -1149.000000)" fill-rule="nonzero">
      <g id="编组-17备份" transform="translate(65.000000, 1131.000000)">
        <g id="编组-5" transform="translate(1416.000000, 14.000000)">
          <g id="搜索-互动" transform="translate(0.000000, 4.000000)">
            <rect id="矩形" fill="#000000" opacity="0" x="0" y="0" width="24" height="24"></rect>
            <path d="M20.8273432,19.9370352 L17.7661471,16.6614462 C19.0069297,15.1671152 19.6892638,13.3043366 19.6892638,11.34399 C19.6892638,6.74353025 15.9457335,3 11.34399,3 C6.74353025,3.00064189 3,6.74353025 3,11.3446319 C3,15.9450916 6.74353025,19.68798 11.3446319,19.68798 C12.5501103,19.6873381 13.7125817,19.4357154 14.7993095,18.9408145 C15.1221826,18.7938206 15.2646832,18.413177 15.1176893,18.0909458 C14.9706954,17.766789 14.588768,17.6236464 14.2678206,17.772566 C13.3479854,18.1910814 12.3646027,18.4035486 11.34399,18.4041905 C7.45089827,18.4041905 4.28378952,15.2370817 4.28378952,11.3446319 C4.28378952,7.45154017 7.45089827,4.28443142 11.34399,4.28443142 C15.2377236,4.28443142 18.4054743,7.45154017 18.4054743,11.3446319 C18.4054743,13.1765995 17.7064509,14.9135668 16.4380668,16.2333024 C16.1922211,16.4887765 16.2005658,16.8950959 16.455398,17.1409416 C16.4746548,17.1595565 16.4996887,17.1666174 16.5208712,17.1826647 C16.5388443,17.2083405 16.5471889,17.2378677 16.5690134,17.2609759 L19.8888931,20.8132215 C20.0147044,20.9486613 20.1860903,21.0167022 20.3574762,21.0167022 C20.5147405,21.0167022 20.6720047,20.9595735 20.7958904,20.8433906 C21.0552158,20.6020381 21.0693375,20.1963607 20.8273432,19.9370352 Z" id="路径" fill="#BFBFC6"></path>
          </g>
        </g>
      </g>
    </g>
  </g>
</svg>
